<svg id="Layer_1" height="512" viewBox="0 0 512 512" width="512" xmlns="http://www.w3.org/2000/svg" data-name="Layer 1"><path d="m353.89 53.794v38.832a20.719 20.719 0 0 1 0-38.832zm14.456 94.72a20.719 20.719 0 0 0 0-38.833zm64.314 24.186a101.194 101.194 0 1 1 29.611-71.541 100.935 100.935 0 0 1 -29.611 71.541zm-64.314-78.027v-40.88a20.753 20.753 0 0 1 13.488 19.417 7.228 7.228 0 0 0 14.456 0 35.232 35.232 0 0 0 -27.944-34.425v-12.185a7.228 7.228 0 0 0 -14.456 0v12.185a35.177 35.177 0 0 0 0 68.85v40.879a20.752 20.752 0 0 1 -13.49-19.414 7.228 7.228 0 0 0 -14.455 0 35.231 35.231 0 0 0 27.943 34.425v12.217a7.228 7.228 0 0 0 14.456 0v-12.22a35.176 35.176 0 0 0 0-68.849zm136.589 140.589-22.054-13.951-22.033-13.987a7.226 7.226 0 0 0 -11.093 5.8l-2.137 52.18a7.227 7.227 0 0 0 6.93 7.513h.3a7.227 7.227 0 0 0 7.216-6.935l1.126-27.61a144.084 144.084 0 0 1 12.81 42.761c9.6 70.133-34.274 138.042-102.06 157.963a7.227 7.227 0 1 0 4.077 13.868 158.782 158.782 0 0 0 99.631-217.774l19.559 12.388a7.228 7.228 0 0 0 7.728-12.216zm-296.41 119.96a148.843 148.843 0 0 0 -52.757 9.568 57.634 57.634 0 0 1 -23.906 34.147 110.643 110.643 0 0 1 78.506 105.836 21.79 21.79 0 0 1 -1.229 7.227h141.738a7.243 7.243 0 0 0 7.227-7.227 149.6 149.6 0 0 0 -149.579-149.551zm-108.7-47.314a43.157 43.157 0 1 0 30.519 12.641 42.981 42.981 0 0 0 -30.522-12.641zm62.91-77.716a64.707 64.707 0 1 0 45.793-18.99 64.5 64.5 0 0 0 -45.796 18.99zm-62.913 178.489a96.107 96.107 0 0 0 -96.122 96.092 7.243 7.243 0 0 0 7.228 7.227h177.758a7.243 7.243 0 0 0 7.227-7.227 96.107 96.107 0 0 0 -96.091-96.092zm-11.98-114a7.227 7.227 0 0 0 12.03-3.462l12.582-50.648a7.227 7.227 0 0 0 -14.028-3.487l-6.017 24.216a144.511 144.511 0 0 1 -2.391-25.051c-.598-70.777 51.582-132.529 121.369-143.641a7.228 7.228 0 0 0 -2.272-14.276 158.715 158.715 0 0 0 -130.581 187.292l-18.234-17.577a7.227 7.227 0 0 0 -10.032 10.406z"/></svg>